HIERARCHY
ROOT hip
{
  OFFSET 5.70873 43.8894 -1.52928
  CHANNELS 6 Xposition Yposition Zposition Zrotation Xrotation Yrotation
  JOINT abdomen
  {
    OFFSET 0 5.99393 0.287273
    CHANNELS 6 Xposition Yposition Zposition Zrotation Xrotation Yrotation
    JOINT chest
    {
      OFFSET 0 6.65865 -0.856112
      CHANNELS 6 Xposition Yposition Zposition Zrotation Xrotation Yrotation
      JOINT neck
      {
        OFFSET 0 8.65624 -1.42685
        CHANNELS 6 Xposition Yposition Zposition Zrotation Xrotation Yrotation
        JOINT head
        {
          OFFSET 0 3.80999 -0.190247
          CHANNELS 6 Xposition Yposition Zposition Zrotation Xrotation Yrotation
          End Site
          {
            OFFSET 0 0 0
          }
        }
      }
      JOINT rCollar
      {
        OFFSET -1.4963 7.5744 -1.52136
        CHANNELS 6 Xposition Yposition Zposition Zrotation Xrotation Yrotation
        JOINT rShldr
        {
          OFFSET -5.47506 -0.905672 0.485692
          CHANNELS 6 Xposition Yposition Zposition Zrotation Xrotation Yrotation
          JOINT rForeArm
          {
            OFFSET -11.3069 -0.201091 0.618544
            CHANNELS 6 Xposition Yposition Zposition Zrotation Xrotation Yrotation
            JOINT rHand
            {
              OFFSET -9.61414 -0.254739 3.48553
              CHANNELS 6 Xposition Yposition Zposition Zrotation Xrotation Yrotation
              JOINT rThumb1
              {
                OFFSET 0.176263 -0.07068 1.26622
                CHANNELS 6 Xposition Yposition Zposition Zrotation Xrotation Yrotation
                JOINT rThumb2
                {
                  OFFSET -1.04683 -0.546484 1.82182
                  CHANNELS 6 Xposition Yposition Zposition Zrotation Xrotation Yrotation
                  JOINT rThumb3
                  {
                    OFFSET -0.993472 -0.621916 0.655506
                    CHANNELS 6 Xposition Yposition Zposition Zrotation Xrotation Yrotation
                    End Site
                    {
                      OFFSET -0.996134 -0.66263 0.644615
                    }
                  }
                }
              }
              JOINT rIndex1
              {
                OFFSET -2.64253 0.566363 2.4162
                CHANNELS 6 Xposition Yposition Zposition Zrotation Xrotation Yrotation
                JOINT rIndex2
                {
                  OFFSET -1.39394 -0.635138 0.899356
                  CHANNELS 6 Xposition Yposition Zposition Zrotation Xrotation Yrotation
                  JOINT rIndex3
                  {
                    OFFSET -0.622395 -0.856016 0.402182
                    CHANNELS 6 Xposition Yposition Zposition Zrotation Xrotation Yrotation
                    End Site
                    {
                      OFFSET -0.472476 -0.801802 0.34216
                    }
                  }
                }
              }
              JOINT rMid1
              {
                OFFSET -3.20814 0.514427 1.52547
                CHANNELS 6 Xposition Yposition Zposition Zrotation Xrotation Yrotation
                JOINT rMid2
                {
                  OFFSET -1.56545 -0.497974 0.68919
                  CHANNELS 6 Xposition Yposition Zposition Zrotation Xrotation Yrotation
                  JOINT rMid3
                  {
                    OFFSET -0.679943 -1.17582 0.444246
                    CHANNELS 6 Xposition Yposition Zposition Zrotation Xrotation Yrotation
                    End Site
                    {
                      OFFSET -0.343874 -0.941341 0.267611
                    }
                  }
                }
              }
              JOINT rRing1
              {
                OFFSET -3.47877 0.200518 0.597719
                CHANNELS 6 Xposition Yposition Zposition Zrotation Xrotation Yrotation
                JOINT rRing2
                {
                  OFFSET -1.28208 -0.53155 0.44672
                  CHANNELS 6 Xposition Yposition Zposition Zrotation Xrotation Yrotation
                  JOINT rRing3
                  {
                    OFFSET -0.710288 -0.970167 0.4032
                    CHANNELS 6 Xposition Yposition Zposition Zrotation Xrotation Yrotation
                    End Site
                    {
                      OFFSET -0.403228 -0.950952 0.378354
                    }
                  }
                }
              }
              JOINT rPinky1
              {
                OFFSET -3.42483 -0.278904 -0.240415
                CHANNELS 6 Xposition Yposition Zposition Zrotation Xrotation Yrotation
                JOINT rPinky2
                {
                  OFFSET -1.05787 -0.635999 0.156459
                  CHANNELS 6 Xposition Yposition Zposition Zrotation Xrotation Yrotation
                  JOINT rPinky3
                  {
                    OFFSET -0.42815 -0.754232 0.287187
                    CHANNELS 6 Xposition Yposition Zposition Zrotation Xrotation Yrotation
                    End Site
                    {
                      OFFSET -0.235717 -0.725605 0.279416
                    }
                  }
                }
              }
            }
          }
        }
      }
      JOINT lCollar
      {
        OFFSET 1.4963 7.5744 -1.52136
        CHANNELS 6 Xposition Yposition Zposition Zrotation Xrotation Yrotation
        JOINT lShldr
        {
          OFFSET 5.47506 -0.905672 0.485692
          CHANNELS 6 Xposition Yposition Zposition Zrotation Xrotation Yrotation
          JOINT lForeArm
          {
            OFFSET 11.3069 -0.201091 0.618544
            CHANNELS 6 Xposition Yposition Zposition Zrotation Xrotation Yrotation
            JOINT lHand
            {
              OFFSET 9.61414 -0.254739 3.48553
              CHANNELS 6 Xposition Yposition Zposition Zrotation Xrotation Yrotation
              JOINT lThumb1
              {
                OFFSET -0.176263 -0.07068 1.26622
                CHANNELS 6 Xposition Yposition Zposition Zrotation Xrotation Yrotation
                JOINT lThumb2
                {
                  OFFSET 1.04683 -0.546484 1.82182
                  CHANNELS 6 Xposition Yposition Zposition Zrotation Xrotation Yrotation
                  JOINT lThumb3
                  {
                    OFFSET 0.993472 -0.621916 0.655506
                    CHANNELS 6 Xposition Yposition Zposition Zrotation Xrotation Yrotation
                    End Site
                    {
                      OFFSET 0.996134 -0.66263 0.644615
                    }
                  }
                }
              }
              JOINT lIndex1
              {
                OFFSET 2.64253 0.566363 2.4162
                CHANNELS 6 Xposition Yposition Zposition Zrotation Xrotation Yrotation
                JOINT lIndex2
                {
                  OFFSET 1.39394 -0.635138 0.899356
                  CHANNELS 6 Xposition Yposition Zposition Zrotation Xrotation Yrotation
                  JOINT lIndex3
                  {
                    OFFSET 0.622395 -0.856016 0.402182
                    CHANNELS 6 Xposition Yposition Zposition Zrotation Xrotation Yrotation
                    End Site
                    {
                      OFFSET 0.472476 -0.801802 0.34216
                    }
                  }
                }
              }
              JOINT lMid1
              {
                OFFSET 3.20814 0.514427 1.52547
                CHANNELS 6 Xposition Yposition Zposition Zrotation Xrotation Yrotation
                JOINT lMid2
                {
                  OFFSET 1.56545 -0.497974 0.68919
                  CHANNELS 6 Xposition Yposition Zposition Zrotation Xrotation Yrotation
                  JOINT lMid3
                  {
                    OFFSET 0.679943 -1.17582 0.444246
                    CHANNELS 6 Xposition Yposition Zposition Zrotation Xrotation Yrotation
                    End Site
                    {
                      OFFSET 0.343874 -0.941341 0.267611
                    }
                  }
                }
              }
              JOINT lRing1
              {
                OFFSET 3.47877 0.200518 0.597719
                CHANNELS 6 Xposition Yposition Zposition Zrotation Xrotation Yrotation
                JOINT lRing2
                {
                  OFFSET 1.28208 -0.53155 0.44672
                  CHANNELS 6 Xposition Yposition Zposition Zrotation Xrotation Yrotation
                  JOINT lRing3
                  {
                    OFFSET 0.710288 -0.970167 0.4032
                    CHANNELS 6 Xposition Yposition Zposition Zrotation Xrotation Yrotation
                    End Site
                    {
                      OFFSET 0.403228 -0.950952 0.378354
                    }
                  }
                }
              }
              JOINT lPinky1
              {
                OFFSET 3.42483 -0.278904 -0.240415
                CHANNELS 6 Xposition Yposition Zposition Zrotation Xrotation Yrotation
                JOINT lPinky2
                {
                  OFFSET 1.05787 -0.635999 0.156459
                  CHANNELS 6 Xposition Yposition Zposition Zrotation Xrotation Yrotation
                  JOINT lPinky3
                  {
                    OFFSET 0.42815 -0.754232 0.287187
                    CHANNELS 6 Xposition Yposition Zposition Zrotation Xrotation Yrotation
                    End Site
                    {
                      OFFSET 0.235717 -0.725605 0.279416
                    }
                  }
                }
              }
            }
          }
        }
      }
    }
  }
  JOINT rThigh
  {
    OFFSET -4.17848 -1.02486 0.046356
    CHANNELS 6 Xposition Yposition Zposition Zrotation Xrotation Yrotation
    JOINT rShin
    {
      OFFSET 1.27155 -17.465 -0.237699
      CHANNELS 6 Xposition Yposition Zposition Zrotation Xrotation Yrotation
      JOINT rFoot
      {
        OFFSET 0.529163 -17.3815 -1.19582
        CHANNELS 6 Xposition Yposition Zposition Zrotation Xrotation Yrotation
        JOINT rToe
        {
          OFFSET -0.711591 -4.4863 4.0596
          CHANNELS 6 Xposition Yposition Zposition Zrotation Xrotation Yrotation
          End Site
          {
            OFFSET -0.869915 -1.10655 1.99006
          }
        }
      }
    }
  }
  JOINT lThigh
  {
    OFFSET 4.17848 -1.02486 0.046356
    CHANNELS 6 Xposition Yposition Zposition Zrotation Xrotation Yrotation
    JOINT lShin
    {
      OFFSET -1.27155 -17.465 -0.237699
      CHANNELS 6 Xposition Yposition Zposition Zrotation Xrotation Yrotation
      JOINT lFoot
      {
        OFFSET -0.529163 -17.3815 -1.19582
        CHANNELS 6 Xposition Yposition Zposition Zrotation Xrotation Yrotation
        JOINT lToe
        {
          OFFSET 0.711591 -4.4863 4.0596
          CHANNELS 6 Xposition Yposition Zposition Zrotation Xrotation Yrotation
          End Site
          {
            OFFSET 0.869915 -1.10655 1.99006
          }
        }
      }
    }
  }
}
MOTION
Frames:	4
Frame Time:	0.0333333
0.258343 30.0909 -3.96106 -3.96693 3.67987 -2.66947 0 5.99393 0.287273 2.62165 10.7019 0.944414 5.55112e-017 6.65865 -0.856112 5.20024 21.4353 1.41744 0 8.65624 -1.42685 2.21009 11.4297 1.8852 0 3.80999 -0.190247 4.95402 15.37 4.81476 -1.4963 7.5744 -1.52136 -15.5864 -0.141525 4.07724 -5.47506 -0.905672 0.485692 39.562 -17.2176 -39.3119 -11.3069 -0.201091 0.618544 28.1161 21.7229 101.283 -9.61414 -0.254739 3.48553 -70.6501 25.0363 47.9136 0.176263 -0.07068 1.26622 10.8261 -14.8982 -18.9302 -1.04683 -0.546484 1.82182 -2.91388 3.62395 -9.48845 -0.993472 -0.621916 0.655506 -4.78572 6.81023 -16.9207 -2.64253 0.566363 2.4162 30.3033 17.6785 -10.4075 -1.39394 -0.635138 0.899356 18.0133 4.27599 -3.33226 -0.622395 -0.856016 0.402182 24.1507 5.45229 -4.74007 -3.20814 0.514427 1.52547 13.9868 11.6108 -2.06818 -1.56545 -0.497974 0.68919 30.3544 7.65829 -6.4348 -0.679943 -1.17582 0.444246 5.85105 1.74746 -0.920833 -3.47877 0.200518 0.597719 16.8523 3.67134 -11.1532 -1.28208 -0.53155 0.44672 27.1282 7.74776 -6.82759 -0.710288 -0.970167 0.4032 4.03041 1.36471 -0.783349 -3.42483 -0.278904 -0.240415 18.6981 0.312569 -24.5771 -1.05787 -0.635999 0.156459 26.2113 8.33212 -6.36029 -0.42815 -0.754232 0.287187 7.0993 2.56976 -1.35413 1.4963 7.5744 -1.52136 9.21047 -2.20477 5.52249 5.47506 -0.905672 0.485692 -55.4068 -2.66229 -2.42634 11.3069 -0.201091 0.618544 -30.948 8.46538 -99.2423 9.61414 -0.254739 3.48553 -12.6888 6.88909 -22.8377 -0.176263 -0.07068 1.26622 -8.45289 1.02228 4.93692 1.04683 -0.546484 1.82182 3.62864 1.30782 6.55496 0.993472 -0.621916 0.655506 7.44365 3.22312 13.7004 2.64253 0.566363 2.4162 -1.59542 17.9449 11.1024 1.39394 -0.635138 0.899356 3.83694 -1.34147 -1.49666 0.622395 -0.856016 0.402182 -1.72737 0.56694 0.697836 3.20814 0.514427 1.52547 8.66493 7.32726 1.53843 1.56545 -0.497974 0.68919 -15.3969 4.86203 6.76839 0.679943 -1.17582 0.444246 -16.2125 5.06498 7.15522 3.47877 0.200518 0.597719 4.34162 -1.20127 6.05196 1.28208 -0.53155 0.44672 -12.3962 4.4622 6.05245 0.710288 -0.970167 0.4032 -14.1742 4.98133 6.97707 3.42483 -0.278904 -0.240415 5.83582 -1.67889 19.9507 1.05787 -0.635999 0.156459 -11.6187 4.61641 5.57284 0.42815 -0.754232 0.287187 -17.0576 6.31578 8.40191 -4.17848 -1.02486 0.046356 -46.4567 -82.0675 -46.0798 1.27155 -17.465 -0.237699 84.7212 76.6217 -78.2528 0.529163 -17.3815 -1.19582 -6.22119 4.71047 -11.4653 -0.711591 -4.4863 4.0596 2.62276 -0.473761 -0.188858 4.17848 -1.02486 0.046356 -106.049 -85.6134 -119.262 -1.27155 -17.465 -0.237699 -22.6074 87.295 26.2102 -0.529163 -17.3815 -1.19582 -0.586154 21.1978 -3.39219 0.711591 -4.4863 4.0596 -2.19347 -5.82294 0.333965 
0.266356 30.0848 -3.97756 -3.99812 3.2583 -2.63912 0 5.99393 0.287273 2.62797 10.6115 0.906724 -2.77556e-016 6.65865 -0.856112 5.21995 21.2532 1.34286 8.88178e-016 8.65624 -1.42685 1.98252 11.2625 1.56953 0 3.80999 -0.190247 4.8121 15.1722 4.46183 -1.4963 7.5744 -1.52136 -15.5864 -0.141509 4.07724 -5.47506 -0.905672 0.485692 39.9537 -17.3681 -38.0331 -11.3069 -0.201091 0.618544 28.1516 21.314 100.781 -9.61414 -0.254739 3.48553 -70.4492 26.1815 47.7116 0.176263 -0.07068 1.26622 10.826 -14.8983 -18.9302 -1.04683 -0.546484 1.82182 -2.91389 3.62396 -9.48845 -0.993472 -0.621916 0.655506 -4.78573 6.81023 -16.9206 -2.64253 0.566363 2.4162 30.3034 17.6785 -10.4076 -1.39394 -0.635138 0.899356 18.0133 4.276 -3.33226 -0.622395 -0.856016 0.402182 24.1506 5.45231 -4.74007 -3.20814 0.514427 1.52547 13.9868 11.6108 -2.06818 -1.56545 -0.497974 0.68919 30.3544 7.65815 -6.43479 -0.679943 -1.17582 0.444246 5.85105 1.74746 -0.920834 -3.47877 0.200518 0.597719 16.8524 3.67137 -11.1532 -1.28208 -0.53155 0.44672 27.1283 7.74756 -6.82763 -0.710288 -0.970167 0.4032 4.03041 1.36471 -0.783348 -3.42483 -0.278904 -0.240415 18.6981 0.312613 -24.5771 -1.05787 -0.635999 0.156459 26.2113 8.33214 -6.36029 -0.42815 -0.754232 0.287187 7.09931 2.56977 -1.35414 1.4963 7.5744 -1.52136 9.26745 -2.15752 5.62402 5.47506 -0.905672 0.485692 -54.751 0.955475 0.734583 11.3069 -0.201091 0.618544 -31.2058 5.03395 -101.519 9.61414 -0.254739 3.48553 -8.42127 11.915 -21.5957 -0.176263 -0.07068 1.26622 -8.45287 1.02226 4.93691 1.04683 -0.546484 1.82182 3.62873 1.30792 6.55489 0.993472 -0.621916 0.655506 7.44363 3.22309 13.7004 2.64253 0.566363 2.4162 -0.160603 17.6951 9.94529 1.39394 -0.635138 0.899356 5.28253 -1.87566 -2.04024 0.622395 -0.856016 0.402182 -0.303462 0.101289 0.12149 3.20814 0.514427 1.52547 10.8907 6.53391 0.384264 1.56545 -0.497974 0.68919 -13.1101 4.27068 5.70132 0.679943 -1.17582 0.444246 -13.9544 4.49535 6.09352 3.47877 0.200518 0.597719 6.55388 -1.8821 5.14158 1.28208 -0.53155 0.44672 -10.1743 3.77473 4.91652 0.710288 -0.970167 0.4032 -11.9737 4.33726 5.83589 3.42483 -0.278904 -0.240415 8.15813 -1.86938 19.0875 1.05787 -0.635999 0.156459 -9.41534 3.8433 4.46255 0.42815 -0.754232 0.287187 -14.8437 5.66017 7.23626 -4.17848 -1.02486 0.046356 -49.1827 -81.8918 -48.7533 1.27155 -17.465 -0.237699 84.153 76.6406 -77.6736 0.529163 -17.3815 -1.19582 -6.03988 5.39429 -11.4628 -0.711591 -4.4863 4.0596 2.62272 -0.473766 -0.188814 4.17848 -1.02486 0.046356 -100.094 -85.5559 -113.241 -1.27155 -17.465 -0.237699 -22.3256 87.2445 25.9179 -0.529163 -17.3815 -1.19582 -0.498044 21.2531 -3.43001 0.711591 -4.4863 4.0596 -2.19348 -5.82295 0.333985 
0.281941 30.067 -4.01192 -4.03514 2.76789 -2.61053 0 5.99393 0.287273 2.63413 10.531 0.87041 5.55112e-017 6.65865 -0.856112 5.23893 21.0907 1.27077 -8.88178e-016 8.65624 -1.42685 1.61235 10.9673 1.15769 8.88178e-016 3.80999 -0.190247 4.53893 14.8305 4.00243 -1.4963 7.5744 -1.52136 -15.5864 -0.141539 4.07721 -5.47506 -0.905672 0.485692 40.538 -17.5471 -36.5624 -11.3069 -0.201091 0.618544 28.1713 20.7229 100.26 -9.61414 -0.254739 3.48553 -70.1836 27.5015 47.5552 0.176263 -0.07068 1.26622 10.8261 -14.8983 -18.9302 -1.04683 -0.546484 1.82182 -2.91394 3.62399 -9.48836 -0.993472 -0.621916 0.655506 -4.78571 6.81023 -16.9206 -2.64253 0.566363 2.4162 30.3033 17.6785 -10.4076 -1.39394 -0.635138 0.899356 18.0133 4.276 -3.33225 -0.622395 -0.856016 0.402182 24.1506 5.45233 -4.74006 -3.20814 0.514427 1.52547 13.9868 11.6108 -2.06817 -1.56545 -0.497974 0.68919 30.3544 7.65814 -6.43479 -0.679943 -1.17582 0.444246 5.85104 1.74746 -0.920816 -3.47877 0.200518 0.597719 16.8523 3.67139 -11.1532 -1.28208 -0.53155 0.44672 27.1282 7.74757 -6.82763 -0.710288 -0.970167 0.4032 4.03038 1.36471 -0.783353 -3.42483 -0.278904 -0.240415 18.698 0.312681 -24.5771 -1.05787 -0.635999 0.156459 26.2113 8.33213 -6.36027 -0.42815 -0.754232 0.287187 7.09928 2.56976 -1.35414 1.4963 7.5744 -1.52136 9.32808 -2.10732 5.73203 5.47506 -0.905672 0.485692 -54.4222 8.86357 3.68474 11.3069 -0.201091 0.618544 -31.9918 -2.20737 -105.882 9.61414 -0.254739 3.48553 -1.80918 17.301 -21.5938 -0.176263 -0.07068 1.26622 -8.45289 1.02224 4.93692 1.04683 -0.546484 1.82182 3.62872 1.30791 6.5549 0.993472 -0.621916 0.655506 7.44361 3.22303 13.7004 2.64253 0.566363 2.4162 1.33055 17.4416 8.76161 1.39394 -0.635138 0.899356 6.8511 -2.47258 -2.6167 0.622395 -0.856016 0.402182 1.20477 -0.409119 -0.478214 3.20814 0.514427 1.52547 13.0525 5.72675 -0.706766 1.56545 -0.497974 0.68919 -10.8954 3.65223 4.68493 0.679943 -1.17582 0.444246 -11.7089 3.88456 5.05596 3.47877 0.200518 0.597719 8.709 -2.58231 4.28698 1.28208 -0.53155 0.44672 -8.02654 3.06167 3.83719 0.710288 -0.970167 0.4032 -9.7883 3.65011 4.72124 3.42483 -0.278904 -0.240415 10.4329 -2.09097 18.281 1.05787 -0.635999 0.156459 -7.28402 3.04942 3.41055 0.42815 -0.754232 0.287187 -12.6461 4.96041 6.09818 -4.17848 -1.02486 0.046356 -59.1107 -81.7195 -58.6975 1.27155 -17.465 -0.237699 82.3427 76.6615 -75.7897 0.529163 -17.3815 -1.19582 -5.71078 7.06941 -11.4016 -0.711591 -4.4863 4.0596 2.62267 -0.473748 -0.188725 4.17848 -1.02486 0.046356 -93.8807 -85.4196 -106.967 -1.27155 -17.465 -0.237699 -22.0089 87.185 25.5899 -0.529163 -17.3815 -1.19582 -0.403293 21.3515 -3.47309 0.711591 -4.4863 4.0596 -2.1935 -5.82295 0.334017 
0.300115 30.0392 -4.06003 -4.0775 2.21838 -2.58426 8.88178e-016 5.99393 0.287273 2.63991 10.4581 0.83545 1.11022e-016 6.65865 -0.856112 5.25689 20.9433 1.20127 8.88178e-016 8.65624 -1.42685 1.11431 10.5568 0.658688 0 3.80999 -0.190247 4.1436 14.3633 3.44805 -1.4963 7.5744 -1.52136 -15.5864 -0.141509 4.07717 -5.47506 -0.905672 0.485692 41.2805 -17.7351 -34.9404 -11.3069 -0.201091 0.618544 28.1799 19.9828 99.7118 -9.61414 -0.254739 3.48553 -69.8678 28.95 47.447 0.176263 -0.07068 1.26622 10.8261 -14.8984 -18.9301 -1.04683 -0.546484 1.82182 -2.91387 3.62391 -9.48844 -0.993472 -0.621916 0.655506 -4.78572 6.81024 -16.9206 -2.64253 0.566363 2.4162 30.3033 17.6786 -10.4076 -1.39394 -0.635138 0.899356 18.0133 4.27602 -3.33225 -0.622395 -0.856016 0.402182 24.1506 5.45238 -4.74006 -3.20814 0.514427 1.52547 13.9868 11.6109 -2.06819 -1.56545 -0.497974 0.68919 30.3544 7.65813 -6.43478 -0.679943 -1.17582 0.444246 5.85103 1.74747 -0.920825 -3.47877 0.200518 0.597719 16.8523 3.67148 -11.1532 -1.28208 -0.53155 0.44672 27.1282 7.74757 -6.82761 -0.710288 -0.970167 0.4032 4.03039 1.36471 -0.783364 -3.42483 -0.278904 -0.240415 18.6981 0.31252 -24.5771 -1.05787 -0.635999 0.156459 26.2113 8.33215 -6.36028 -0.42815 -0.754232 0.287187 7.09927 2.56977 -1.35413 1.4963 7.5744 -1.52136 9.38859 -2.05697 5.83998 5.47506 -0.905672 0.485692 -54.8524 14.3692 6.69375 11.3069 -0.201091 0.618544 -32.9398 -7.36639 -109.134 9.61414 -0.254739 3.48553 5.52432 22.2188 -23.1723 -0.176263 -0.07068 1.26622 -8.45292 1.02219 4.93692 1.04683 -0.546484 1.82182 3.62872 1.30791 6.55489 0.993472 -0.621916 0.655506 7.44357 3.22293 13.7004 2.64253 0.566363 2.4162 2.8804 17.1688 7.556 1.39394 -0.635138 0.899356 8.42569 -3.08949 -3.18086 0.622395 -0.856016 0.402182 2.72634 -0.941719 -1.0715 3.20814 0.514427 1.52547 15.0912 4.93288 -1.70737 1.56545 -0.497974 0.68919 -8.80642 3.02991 3.74425 0.679943 -1.17582 0.444246 -9.61544 3.27564 4.1063 3.47877 0.200518 0.597719 10.7472 -3.27713 3.50865 1.28208 -0.53155 0.44672 -6.00335 2.3486 2.83945 0.710288 -0.970167 0.4032 -7.75332 2.96792 3.7015 3.42483 -0.278904 -0.240415 12.5947 -2.33258 17.5489 1.05787 -0.635999 0.156459 -5.2776 2.26093 2.4413 0.42815 -0.754232 0.287187 -10.6009 4.26551 5.05744 -4.17848 -1.02486 0.046356 -72.981 -81.3056 -72.7516 1.27155 -17.465 -0.237699 79.3443 76.6442 -72.6462 0.529163 -17.3815 -1.19582 -5.36872 9.17589 -11.3192 -0.711591 -4.4863 4.0596 2.62279 -0.473774 -0.188913 4.17848 -1.02486 0.046356 -87.7418 -85.2099 -100.775 -1.27155 -17.465 -0.237699 -21.6899 87.1228 25.2579 -0.529163 -17.3815 -1.19582 -0.311708 21.4807 -3.51791 0.711591 -4.4863 4.0596 -2.19353 -5.82296 0.334076 
